<?xml version="1.0" encoding="UTF-8"?>
<svg version="1.1" xmlns="http://www.w3.org/2000/svg" width="227" height="236">
<path d="M0 0 C6.27443617 6.13500425 9.19552169 13.41378086 9.4375 22.125 C9.10291342 30.56521642 6.70422052 35.76184904 1.01171875 41.9453125 C-0.27427049 44.0399933 -0.27427049 44.0399933 0.5078125 46.73046875 C2.37767572 50.82752508 4.68565629 54.45174378 7.1875 58.1875 C8.17741589 59.6898851 9.16699872 61.1924897 10.15625 62.6953125 C10.63964844 63.42524414 11.12304688 64.15517578 11.62109375 64.90722656 C13.50892634 67.77240024 15.35073397 70.66432409 17.1875 73.5625 C18.01314453 74.86380859 18.01314453 74.86380859 18.85546875 76.19140625 C19.23316406 76.78824219 19.61085938 77.38507813 20 78 C21.23363281 77.36771484 21.23363281 77.36771484 22.4921875 76.72265625 C23.60851562 76.17480469 24.72484375 75.62695312 25.875 75.0625 C26.96554688 74.51722656 28.05609375 73.97195312 29.1796875 73.41015625 C33 72 33 72 43 71 C43 58.79 43 46.58 43 34 C41.02 33.34 39.04 32.68 37 32 C34.52108538 29.10793295 34.03190194 27.29775147 33.625 23.5 C34.02664502 19.7513131 34.6595378 17.92557776 37 15 C40.42765252 12.42926061 43.83971296 12.56962548 48 13 C53.68421053 16.05263158 53.68421053 16.05263158 55 20 C55.57058534 27.07525824 55.57058534 27.07525824 53.1875 30.9375 C51 33 51 33 48 34 C47.67 46.21 47.34 58.42 47 71 C49.97 71.33 52.94 71.66 56 72 C58.890625 72.90234375 58.890625 72.90234375 61.25 73.9375 C62.43335938 74.44603516 62.43335938 74.44603516 63.640625 74.96484375 C66 76 66 76 68.40234375 77.40234375 C71.19593778 78.35378338 71.19593778 78.35378338 74.11328125 76.2265625 C75.19430195 75.37766281 76.26047072 74.50957383 77.3125 73.625 C77.86228516 73.18671875 78.41207031 72.7484375 78.97851562 72.296875 C80.33206464 71.21403579 81.66785176 70.10906121 83 69 C82.72285156 68.39414063 82.44570312 67.78828125 82.16015625 67.1640625 C78.25166374 58.12306559 76.49883434 49.47089514 80 40 C83.79412068 31.80221139 88.66013057 26.38589911 96.9375 22.6875 C106.61304041 20.51543991 115.14929813 20.27623563 123.8125 25.75 C130.73331221 30.81876387 134.81873671 36.71819821 137 45 C138.16851711 53.94682801 136.58678581 61.41813273 131.71484375 69 C127.37911348 74.6038408 121.01807056 78.715732 114 80 C102.85446967 80.91014371 96.38809137 78.63285482 87 73 C83.04 75.97 79.08 78.94 75 82 C77.67590338 86.68388136 77.67590338 86.68388136 79.9375 89.5 C86.20725963 98.96515836 87.33266248 110.8572064 85.5390625 121.81640625 C85.09067755 123.89262352 84.55594247 125.94996215 84 128 C85.08921753 128.18357056 85.08921753 128.18357056 86.20043945 128.37084961 C88.96863203 128.99295062 91.22607499 129.87187013 93.79296875 131.06640625 C94.67017578 131.46923828 95.54738281 131.87207031 96.45117188 132.28710938 C97.35416016 132.70798828 98.25714844 133.12886719 99.1875 133.5625 C100.9919314 134.4004988 102.79785124 135.23530241 104.60546875 136.06640625 C105.40106201 136.43709229 106.19665527 136.80777832 107.01635742 137.18969727 C108.95145337 138.1260527 108.95145337 138.1260527 111 138 C111.598125 137.38125 112.19625 136.7625 112.8125 136.125 C115.26004356 133.74738626 116.69484067 132.82628983 120 132 C126.52995315 132.10365005 129.40222493 133.40222493 134 138 C135.98605212 141.97210425 135.53604229 146.68120474 135 151 C133.30149186 154.72646829 130.78081215 156.60959393 127.125 158.4375 C122.61099471 159.25002095 119.14951249 159.21834716 115.0703125 156.90625 C112.93239725 155.30946683 111.52370078 154.21921592 110 152 C109.87022345 150.55369297 109.74438704 149.10703037 109.62109375 147.66015625 C108.94744387 144.2006063 108.37372431 143.25398739 105.40991211 141.23974609 C101.94421891 139.63473981 98.4600949 138.2540496 94.875 136.9375 C93.63024135 136.45180768 92.38673047 135.96290453 91.14453125 135.47070312 C88.10713907 134.2816465 85.06090917 133.12681821 82 132 C81.21314819 133.01320312 81.21314819 133.01320312 80.41040039 134.046875 C79.35840454 135.38492188 79.35840454 135.38492188 78.28515625 136.75 C77.59558838 137.63171875 76.90602051 138.5134375 76.19555664 139.421875 C70.94805773 145.58373295 65.8480211 149.02134741 58 151 C58.12117188 151.55985596 58.24234375 152.11971191 58.3671875 152.6965332 C58.91463176 155.23451635 59.4573656 157.77348433 60 160.3125 C60.19078125 161.19357422 60.3815625 162.07464844 60.578125 162.98242188 C60.75859375 163.82998047 60.9390625 164.67753906 61.125 165.55078125 C61.29257813 166.33106689 61.46015625 167.11135254 61.6328125 167.9152832 C62 170 62 170 62 173 C63.0725 173.0825 64.145 173.165 65.25 173.25 C69 174 69 174 71.375 175.5 C73.75810634 179.16631745 74.2091895 182.66125491 74 187 C72.43818681 190.670261 71.34089404 191.7727373 68 194 C63.40728797 194.73965025 59.97537911 194.60961194 56 192.125 C52.90507738 188.83664472 52.68336413 186.50772033 52.69140625 181.99609375 C53 180 53 180 55.125 177.75 C57.46653825 174.3157439 57.04359627 173.26157762 56.375 169.25 C55.94075989 167.16151185 55.48272517 165.07781704 55 163 C54.8040625 162.0821875 54.608125 161.164375 54.40625 160.21875 C53.95915127 158.1410559 53.48292094 156.06966119 53 154 C52.40574219 154.02320313 51.81148438 154.04640625 51.19921875 154.0703125 C37.0878395 154.3775587 24.45699513 150.90662696 14 141 C13.34 140.34 12.68 139.68 12 139 C9.26896745 140.91401853 6.54051809 142.83168801 3.8125 144.75 C3.04357422 145.28882813 2.27464844 145.82765625 1.48242188 146.3828125 C-2.44357437 149.14617466 -6.29507889 151.94102706 -10 155 C-9.71125 155.61746094 -9.4225 156.23492187 -9.125 156.87109375 C-5.65084196 164.79651677 -4.68824846 170.76406794 -7.4375 179.0625 C-10.21550937 185.42215717 -15.24972311 190.27705503 -21.55078125 193.171875 C-28.27805744 195.44648832 -34.36252656 195.44538495 -41 193 C-47.60236691 189.71497242 -51.8193118 185.65956591 -55 179 C-57.15364435 172.53906695 -57.31319976 163.85811884 -54.5 157.5625 C-50.31798542 150.74844828 -44.39545276 146.27998839 -36.64453125 144.375 C-29.9664119 143.42802887 -24.26330055 143.8191171 -18.625 147.6875 C-17.74714844 148.40486328 -17.74714844 148.40486328 -16.8515625 149.13671875 C-14.95207123 150.27882719 -14.95207123 150.27882719 -12.66088867 149.23730469 C-8.29974371 147.20938628 -4.57534771 144.37021954 -0.6875 141.5625 C0.14845703 140.97662109 0.98441406 140.39074219 1.84570312 139.78710938 C2.63525391 139.21927734 3.42480469 138.65144531 4.23828125 138.06640625 C4.96055908 137.55021729 5.68283691 137.03402832 6.42700195 136.50219727 C7.20563599 135.75860962 7.20563599 135.75860962 8 135 C8 131.79224821 7.3962475 130.4823523 6.0625 127.625 C3.28424803 120.96897584 3 114.14786789 3 107 C-1.90438068 105.75755689 -6.81497942 104.54593184 -11.73388672 103.36230469 C-13.40620097 102.95534135 -15.07650353 102.54001731 -16.74462891 102.11621094 C-19.1426621 101.50849997 -21.54631815 100.93120299 -23.953125 100.359375 C-25.0705307 100.06592194 -25.0705307 100.06592194 -26.21051025 99.76654053 C-28.56861727 99.17104997 -28.56861727 99.17104997 -32 99 C-34.36559115 100.74787289 -34.36559115 100.74787289 -36 103 C-39.65288193 104.21762731 -42.15754136 104.39075851 -46 104 C-48.97551795 102.22396702 -51.42755188 100.14489623 -53 97 C-53.3751455 92.02932218 -53.15878799 88.94848498 -50 85 C-46.57823311 82.43367483 -43.15359579 82.63564949 -39 83 C-35.4613006 84.65139305 -34.18929847 85.71605229 -32 89 C-31.875 91.6875 -31.875 91.6875 -32 94 C-30.13021484 94.36351563 -30.13021484 94.36351563 -28.22265625 94.734375 C-17.08589918 96.91951841 -6.02673832 99.31473212 5 102 C5.10570312 101.11699219 5.21140625 100.23398438 5.3203125 99.32421875 C6.0196654 95.90382038 7.03999586 93.75672306 8.875 90.8125 C9.38804688 89.97332031 9.90109375 89.13414063 10.4296875 88.26953125 C12 86 12 86 13.7578125 84.44921875 C14.16773437 83.97097656 14.57765625 83.49273437 15 83 C14.53407485 79.96125302 13.38868027 77.71865735 11.77734375 75.12890625 C11.32464111 74.39526855 10.87193848 73.66163086 10.40551758 72.90576172 C9.92107178 72.13248535 9.43662598 71.35920898 8.9375 70.5625 C8.44596436 69.76859863 7.95442871 68.97469727 7.44799805 68.15673828 C6.44822428 66.5424813 5.44635931 64.92951757 4.44238281 63.31787109 C2.74034538 60.58274188 1.05274744 57.83895736 -0.63256836 55.09350586 C-2.08524199 52.72706992 -3.54262232 50.36354088 -5 48 C-6.216875 48.495 -7.43375 48.99 -8.6875 49.5 C-16.15802353 51.95880223 -24.42326668 52.39829815 -31.8125 49.4375 C-40.29135958 44.97248587 -45.76488033 39.06391288 -49 30 C-51.20133463 21.51327571 -49.55433869 13.37758724 -45.4375 5.75 C-40.68810048 -1.65347572 -33.3608498 -5.68713882 -24.9375 -7.75 C-15.23630692 -8.36594877 -7.42108171 -6.35220163 0 0 Z M-41.40234375 7.78515625 C-45.77398078 13.84559194 -45.81450155 20.74525366 -45 28 C-43.94685944 30.99458228 -42.67610434 33.27633044 -41 36 C-39.77503707 34.1625556 -38.59564016 32.29237027 -37.5 30.375 C-36 28 -36 28 -34 27 C-29.38068733 26.70092859 -24.75284765 26.72189926 -20.125 26.6875 C-18.83207031 26.65849609 -17.53914063 26.62949219 -16.20703125 26.59960938 C-14.34498047 26.58704102 -14.34498047 26.58704102 -12.4453125 26.57421875 C-11.30594238 26.55963623 -10.16657227 26.54505371 -8.99267578 26.5300293 C-5.3435338 27.10309165 -4.20160904 28.08533641 -2 31 C-1.25 34.25 -1.25 34.25 -1 37 C3.07882505 33.46501829 4.65359474 30.27565678 5.22265625 24.89453125 C5.54626055 16.72000523 2.95122361 10.18954636 -2.15234375 3.83203125 C-7.2255299 -1.19825269 -12.99263134 -3.28330773 -20.0625 -3.5625 C-29.6601996 -3.07094048 -35.36441773 0.37879371 -41.40234375 7.78515625 Z M87.4765625 35.9453125 C82.52943888 42.82940515 82.01526024 49.73855171 83 58 C84.05014846 60.78675761 85.20553526 62.588688 87 65 C88.22496293 63.1625556 89.40435984 61.29237027 90.5 59.375 C92 57 92 57 94 56 C98.61931267 55.70092859 103.24715235 55.72189926 107.875 55.6875 C109.16792969 55.65849609 110.46085937 55.62949219 111.79296875 55.59960938 C113.65501953 55.58704102 113.65501953 55.58704102 115.5546875 55.57421875 C116.69405762 55.55963623 117.83342773 55.54505371 119.00732422 55.5300293 C122.6564662 56.10309165 123.79839096 57.08533641 126 60 C126.75 63.25 126.75 63.25 127 66 C131.49501357 61.90790081 132.76851676 57.05028009 133.4375 51.125 C133.10901661 43.54001979 129.48362554 36.12599779 124 31 C111.34727261 22.06726924 96.98132992 24.0969038 87.4765625 35.9453125 Z M15.99609375 88.359375 C8.33082701 98.6650781 6.86223573 108.40874209 8 121 C9.49688871 127.34165754 12.00447319 131.83706099 17 136 C17.15855469 135.18015625 17.31710938 134.3603125 17.48046875 133.515625 C17.83044922 131.89914063 17.83044922 131.89914063 18.1875 130.25 C18.40792969 129.18265625 18.62835938 128.1153125 18.85546875 127.015625 C20.30006063 123.20939657 21.54084275 122.14047925 25 120 C27.95267334 119.42663806 30.84296536 119.43881216 33.84375 119.46875 C34.69046265 119.4649231 35.53717529 119.46109619 36.4095459 119.45715332 C38.19475498 119.45443861 39.98000413 119.46176894 41.76513672 119.47851562 C44.49146539 119.49993295 47.21515915 119.47870047 49.94140625 119.453125 C51.67969329 119.45576836 53.4179787 119.4608935 55.15625 119.46875 C55.96783569 119.46065308 56.77942139 119.45255615 57.61560059 119.44421387 C62.66831585 119.52756916 65.32631 120.21391332 69 124 C70.86727574 126.86391985 71.32679763 129.37037314 71.625 132.75 C71.69976562 133.54921875 71.77453125 134.3484375 71.8515625 135.171875 C71.90054688 135.77515625 71.94953125 136.3784375 72 137 C75.18185945 134.11665189 76.96285948 131.48510509 78.6875 127.5625 C79.10386719 126.63566406 79.52023438 125.70882812 79.94921875 124.75390625 C83.41041808 115.68273329 82.65805237 106.02095569 78.77734375 97.23046875 C73.15722051 86.27497518 66.43205899 80.64135365 55 76 C40.28923079 72.28288374 25.79920697 76.81730798 15.99609375 88.359375 Z M-45.390625 153.33203125 C-49.92839043 158.03500658 -52.27456771 163.75166935 -52.5 170.25 C-52.29028729 174.40493304 -51.2452344 177.44504553 -49 181 C-47.79371992 178.66785852 -46.8345262 176.50357861 -46 174 C-41.48563366 172.27106712 -36.32360112 172.77596374 -31.5625 172.75 C-30.15000977 172.7190625 -30.15000977 172.7190625 -28.70898438 172.6875 C-19.98549693 172.63824954 -19.98549693 172.63824954 -16 176 C-14.6875 178.1875 -14.6875 178.1875 -14 180 C-11.18454393 177.06213279 -10.29441879 174.25180447 -9.94140625 170.2109375 C-10.1171595 163.57918157 -12.91926069 158.20352065 -17.3984375 153.4375 C-25.63571685 146.04403951 -37.00274018 146.77178189 -45.390625 153.33203125 Z " fill="#FBE0CE" transform="translate(74,23)"/>
<path d="M0 0 C3.85432136 1.78950635 5.49773376 3.26334285 7.875 6.75 C9.46868181 11.35396968 9.97077465 15.37995229 8.2734375 19.9609375 C6.20838828 23.93993477 4.20153562 26.44725857 0 28 C-4.58651094 28.53736349 -8.5748793 28.58863681 -12.875 26.8125 C-16.85664698 23.41638934 -19.11863345 20.80148489 -19.9375 15.5625 C-20.32885626 9.6628044 -18.32708877 6.52615208 -14.5 2.125 C-10.20261498 -1.19472993 -5.14668195 -0.81948656 0 0 Z " fill="#FBDFCC" transform="translate(124,109)"/>
<path d="M0 0 C3.81504836 1.69557705 5.47668134 3.1501583 7 7 C7.31096221 11.52888552 6.80424554 15.00078585 3.9375 18.5625 C0.14389674 20.41894415 -2.85279314 20.85457596 -7 20 C-9.8100346 18.20636089 -11.50940468 16.98119065 -13 14 C-13.5811138 6.91041162 -13.5811138 6.91041162 -11.125 3.0625 C-7.50882222 -0.44731961 -4.97588405 -0.33734807 0 0 Z " fill="#FBE0CD" transform="translate(57,25)"/>
<path d="M0 0 C2.85746217 1.26998319 4.48137263 2.2838003 6.3125 4.8125 C7.24508259 7.77980823 7.37237901 9.89684156 7 13 C3.84210526 18.57894737 3.84210526 18.57894737 1 20 C-6.08958838 20.5811138 -6.08958838 20.5811138 -9.9375 18.125 C-13.09695358 14.8698054 -13.33421243 12.57586762 -13.29296875 8.0390625 C-12.83745033 4.86865433 -11.24684343 3.1807598 -9 1 C-5.93570224 -0.53214888 -3.3834358 -0.22938548 0 0 Z " fill="#FBE0CD" transform="translate(185,54)"/>
<path d="M0 0 C2.5 1.5 2.5 1.5 4 4 C4.79126072 8.02224201 4.66872394 10.95679065 2.4375 14.4375 C-0.83565762 16.53567796 -3.11417724 17 -7 17 C-9.875 15.5 -9.875 15.5 -12 13 C-13.1659741 8.99196403 -13.43240501 6.94717289 -11.6875 3.125 C-8.57721191 -0.79165908 -4.7089521 -0.64212983 0 0 Z " fill="#FBE0CE" transform="translate(47,176)"/>
<path d="M0 0 C0.66 0.33 1.32 0.66 2 1 C-0.97 3.97 -3.94 6.94 -7 10 C-7 6.04435836 -5.59478606 4.89133304 -3 2 C-2.01 1.34 -1.02 0.68 0 0 Z " fill="#FCE9DC" transform="translate(165,49)"/>
<path d="M0 0 C0.66 0.33 1.32 0.66 2 1 C-0.97 3.97 -3.94 6.94 -7 10 C-7 7 -7 7 -4.625 4.4375 C-3.75875 3.633125 -2.8925 2.82875 -2 2 C-1.34 1.34 -0.68 0.68 0 0 Z " fill="#FBE8DB" transform="translate(37,20)"/>
</svg>